<svg width="12" height="12" viewBox="0 0 12 12" fill="none" xmlns="http://www.w3.org/2000/svg">
<path d="M6.00002 6C5.26669 6 4.63891 5.73889 4.11669 5.21667C3.59446 4.69445 3.33335 4.06667 3.33335 3.33334C3.33335 2.6 3.59446 1.97223 4.11669 1.45001C4.63891 0.927783 5.26669 0.666672 6.00002 0.666672C6.73335 0.666672 7.36113 0.927783 7.88335 1.45001C8.40558 1.97223 8.66669 2.6 8.66669 3.33334C8.66669 4.06667 8.40558 4.69445 7.88335 5.21667C7.36113 5.73889 6.73335 6 6.00002 6ZM0.666687 11.3333V9.46667C0.666687 9.08889 0.763909 8.74167 0.958354 8.425C1.1528 8.10834 1.41113 7.86667 1.73335 7.7C2.42224 7.35556 3.12224 7.09723 3.83335 6.925C4.54446 6.75278 5.26669 6.66667 6.00002 6.66667C6.73335 6.66667 7.45558 6.75278 8.16669 6.925C8.8778 7.09723 9.5778 7.35556 10.2667 7.7C10.5889 7.86667 10.8472 8.10834 11.0417 8.425C11.2361 8.74167 11.3334 9.08889 11.3334 9.46667V11.3333H0.666687ZM2.00002 10H10V9.46667C10 9.34445 9.96946 9.23334 9.90835 9.13334C9.84724 9.03334 9.76669 8.95556 9.66669 8.9C9.06669 8.6 8.46113 8.37501 7.85002 8.22501C7.23891 8.07501 6.62224 8 6.00002 8C5.3778 8 4.76113 8.07501 4.15002 8.22501C3.53891 8.37501 2.93335 8.6 2.33335 8.9C2.23335 8.95556 2.1528 9.03334 2.09169 9.13334C2.03058 9.23334 2.00002 9.34445 2.00002 9.46667V10ZM6.00002 4.66667C6.36669 4.66667 6.68058 4.53612 6.94169 4.275C7.2028 4.01389 7.33335 3.7 7.33335 3.33334C7.33335 2.96667 7.2028 2.65278 6.94169 2.39167C6.68058 2.13056 6.36669 2.00001 6.00002 2.00001C5.63335 2.00001 5.31946 2.13056 5.05835 2.39167C4.79724 2.65278 4.66669 2.96667 4.66669 3.33334C4.66669 3.7 4.79724 4.01389 5.05835 4.275C5.31946 4.53612 5.63335 4.66667 6.00002 4.66667Z" fill="#4D4738"/>
</svg>
