<svg width="17" height="17" viewBox="0 0 17 17" fill="none" xmlns="http://www.w3.org/2000/svg">
<path d="M5.33331 13.25L8.49998 10.8354L11.6666 13.25L10.4791 9.33123L13.6458 7.07498H9.76665L8.49998 2.95831L7.23331 7.07498H3.35415L6.52081 9.33123L5.33331 13.25ZM8.49998 16.4166C7.40484 16.4166 6.37567 16.2088 5.41248 15.7932C4.44928 15.3776 3.61144 14.8135 2.89894 14.101C2.18644 13.3885 1.62238 12.5507 1.20675 11.5875C0.791125 10.6243 0.583313 9.59512 0.583313 8.49998C0.583313 7.40484 0.791125 6.37567 1.20675 5.41248C1.62238 4.44928 2.18644 3.61144 2.89894 2.89894C3.61144 2.18644 4.44928 1.62238 5.41248 1.20675C6.37567 0.791125 7.40484 0.583313 8.49998 0.583313C9.59512 0.583313 10.6243 0.791125 11.5875 1.20675C12.5507 1.62238 13.3885 2.18644 14.101 2.89894C14.8135 3.61144 15.3776 4.44928 15.7932 5.41248C16.2088 6.37567 16.4166 7.40484 16.4166 8.49998C16.4166 9.59512 16.2088 10.6243 15.7932 11.5875C15.3776 12.5507 14.8135 13.3885 14.101 14.101C13.3885 14.8135 12.5507 15.3776 11.5875 15.7932C10.6243 16.2088 9.59512 16.4166 8.49998 16.4166ZM8.49998 14.8333C10.268 14.8333 11.7656 14.2198 12.9927 12.9927C14.2198 11.7656 14.8333 10.268 14.8333 8.49998C14.8333 6.73192 14.2198 5.23435 12.9927 4.00727C11.7656 2.78019 10.268 2.16665 8.49998 2.16665C6.73192 2.16665 5.23435 2.78019 4.00727 4.00727C2.78019 5.23435 2.16665 6.73192 2.16665 8.49998C2.16665 10.268 2.78019 11.7656 4.00727 12.9927C5.23435 14.2198 6.73192 14.8333 8.49998 14.8333Z" fill="white"/>
</svg>
